<svg xmlns="http://www.w3.org/2000/svg" xmlns:xlink="http://www.w3.org/1999/xlink" version="1.1" x="0px" y="0px"
     viewBox="0 0 100 100" enable-background="new 0 0 100 100" xml:space="preserve"><g>
    <path fill="white" d="M49.726,20.717c-3.623,0-6.561,2.938-6.561,6.561c0,3.622,2.938,6.559,6.561,6.559   c3.624,0,6.559-2.937,6.559-6.559C56.285,23.654,53.35,20.717,49.726,20.717z M55.57,26.294c0,1.878-1.521,3.399-3.398,3.399   c-1.876,0-3.398-1.521-3.398-3.399c0-1.876,1.521-3.397,3.398-3.397C54.049,22.896,55.57,24.418,55.57,26.294z"/><path
        d="M68,28.992l-4.016-2.318l-2.973-1.717c-2.045-9.152-11.507-10.699-11.507-10.699   c-12.583,2.359-13.371,12.727-12.355,19.769c-6.159,1.429-12.266-0.669-12.266-0.669c5.817,9.669,10.4,9.273,13.562,6.354   c0.208,0.655,0.352,1.029,0.352,1.029c-2.19,6.285-9.978,0-9.978,0c4.629,7.451,8.67,11.561,12.159,13.461v25.52h0.445L42.666,83   l0.936-0.355l-0.338-0.891l1.652,1.051l0.419-0.658l0.188-0.219l-1.485-1.279l0.952,0.065l0.068-0.998l-2.079-0.143V55.08   c2.159,0.707,4.079,0.543,5.769-0.166v24.807h0.381L50.37,83l0.935-0.355l-0.337-0.892l1.654,1.052l0.418-0.658l0.189-0.219   l-1.486-1.279l0.951,0.065l0.068-0.998l-2.014-0.138V53.761c5.301-3.93,7.762-13.021,7.762-13.021   c1.215-2.852,1.994-5.396,2.438-7.676l3.037-1.754L68,28.992z M49.726,33.836c-3.623,0-6.561-2.937-6.561-6.559   c0-3.623,2.938-6.561,6.561-6.561c3.624,0,6.559,2.938,6.559,6.561C56.285,30.899,53.35,33.836,49.726,33.836z"/><circle
        cx="52.172" cy="26.294" r="3.398"/></g></svg>