<svg xmlns="http://www.w3.org/2000/svg" xmlns:xlink="http://www.w3.org/1999/xlink" width="124.647" height="42.127"
     viewBox="0 0 124.647 42.127">
    <defs>
        <linearGradient id="a" x1="0.5" x2="0.5" y2="1" gradientUnits="objectBoundingBox">
            <stop offset="0" stop-color="#febb04"/>
            <stop offset="1" stop-color="#f80"/>
        </linearGradient>
    </defs>
    <g transform="translate(-497 886.809)">
        <path d="M52.642,32.547a3.9,3.9,0,0,1,4-3.868,4.259,4.259,0,0,1,2.8,1.055l-.5.659a3.458,3.458,0,0,0-2.3-.89,3.051,3.051,0,1,0,.011,6.1,3.587,3.587,0,0,0,1.993-.648V32.635h.769v2.791A4.643,4.643,0,0,1,56.6,36.438,3.9,3.9,0,0,1,52.642,32.547Zm-8.624,0a3.971,3.971,0,1,1,3.976,3.891A3.883,3.883,0,0,1,44.018,32.547Zm.877,0a3.088,3.088,0,1,0,3.1-3.033A3.079,3.079,0,0,0,44.9,32.547Zm-15.287,0a3.971,3.971,0,1,1,3.976,3.891A3.883,3.883,0,0,1,29.609,32.547Zm.878,0a3.088,3.088,0,1,0,3.1-3.033A3.078,3.078,0,0,0,30.487,32.547Zm-17.074-.011a3.882,3.882,0,0,1,3.955-3.858A4.069,4.069,0,0,1,20.14,29.8l-.52.671a3.162,3.162,0,0,0-2.242-.967,3.034,3.034,0,1,0,0,6.066,3.28,3.28,0,0,0,2.242-.923l.531.6a4.157,4.157,0,0,1-2.817,1.187A3.884,3.884,0,0,1,13.412,32.536Zm56.911,3.858-.845-1.945H65.339l-.845,1.945h-.921l3.4-7.694h.9l3.391,7.694ZM65.707,33.6h3.4L67.4,29.7Zm-4.193,2.791V28.7h.867v7.694Zm-22.383,0V28.7H40v6.858h3.326v.835Zm-12,0-4.55-6.177v6.177h-.867V28.7h.9l4.55,6.188V28.7h.856v7.694Zm-20.053,0V28.7h5.146v.847H7.941v2.528h3.824v.847H7.941v2.638h4.42v.835Zm-4.6,0V29.547H0V28.7H5.818v.847H3.337v6.847Zm49.8-14.112L54.786,17.5A8.277,8.277,0,0,0,60.9,20.51c2.444,0,3.771-1.2,3.771-3.224,0-2.09-1.362-3.117-3.806-3.117H56.951V10.8L62.4,5.066h-8.9V.248H69.626V3.826l-6.111,6.447,1.153.178c3.561.566,6.075,2.94,6.075,6.766,0,4.747-3.666,8.077-9.358,8.077A15.23,15.23,0,0,1,52.272,22.281ZM27.236,12.611C27.236,5.42,33,0,40.714,0A15.492,15.492,0,0,1,50.7,3.684L47.209,7.97a9.957,9.957,0,0,0-6.529-2.692,7.092,7.092,0,0,0-7.088,7.333,7.145,7.145,0,0,0,7.158,7.4,10.27,10.27,0,0,0,4.33-1.2V12.4h5.377v9.67a19.016,19.016,0,0,1-10.161,3.224C32.858,25.292,27.236,19.837,27.236,12.611ZM20.6,25.009l-1.746-4.57H8.171L6.39,25.009H0L10.545.212h6.39l10.3,24.8ZM9.987,15.657H17.04L13.548,6.483Z"
              transform="translate(550.382 -883.809)" fill="#333"/>
        <path d="M18.925,38.408a3.7,3.7,0,0,0,2.985-1.673l6.562-9.906.036-.045,8.508,4.9A5.158,5.158,0,0,1,35.2,33.445l-13.886,8a5.169,5.169,0,0,1-2.388.687Zm-1.414,3.524a5.178,5.178,0,0,1-1.162-.492l-13.886-8A5.17,5.17,0,0,1,.644,31.683l8.45-4.866,6.57,9.918a3.779,3.779,0,0,0,.622.724,3.672,3.672,0,0,0,.746.521,3.78,3.78,0,0,0,1.7.431v3.717A5.2,5.2,0,0,1,17.511,41.932ZM17.487,35.4l-6.915-10.8a10.006,10.006,0,1,1,16.709-.42h0L20.394,35.4a1.672,1.672,0,0,1-2.907,0Zm11.128-8.748a12.331,12.331,0,0,0,1.68-12.1l6.761-3.9a5.157,5.157,0,0,1,.6,2.408l.007,16a5.152,5.152,0,0,1-.62,2.453ZM.16,30.33A5.17,5.17,0,0,1,0,29.054l.007-16a5.157,5.157,0,0,1,.6-2.408l6.747,3.892A12.338,12.338,0,0,0,8.669,26.158c.045.078.092.155.141.229l.19.287L.62,31.507A5.169,5.169,0,0,1,.16,30.33ZM18.926,6.8l0-6.8a5.186,5.186,0,0,1,2.388.687l13.886,8a5.158,5.158,0,0,1,1.818,1.762l-6.8,3.915A12.346,12.346,0,0,0,18.926,6.8ZM.644,10.444A5.182,5.182,0,0,1,2.463,8.682l13.887-8A5.181,5.181,0,0,1,18.737,0l0,6.8A12.345,12.345,0,0,0,7.428,14.351Z"
              transform="translate(497 -886.809)" fill="url(#a)"/>
    </g>
</svg>